<mxfile host="Electron" modified="2024-07-24T23:19:15.982Z" agent="Mozilla/5.0 (Windows NT 10.0; Win64; x64) AppleWebKit/537.36 (KHTML, like Gecko) draw.io/24.6.4 Chrome/124.0.6367.207 Electron/30.0.6 Safari/537.36" etag="wyeJjz_GAgWjZmNhuL1d" version="24.6.4" type="device">
  <diagram name="PÃ¡gina-1" id="6JuMw-_3IWvTOoNxp95M">
    <mxGraphModel dx="2074" dy="2365" grid="1" gridSize="10" guides="1" tooltips="1" connect="1" arrows="1" fold="1" page="1" pageScale="1" pageWidth="827" pageHeight="1169" background="#ffffff" math="0" shadow="0">
      <root>
        <mxCell id="0" />
        <mxCell id="1" parent="0" />
        <mxCell id="WI-DW6TrRd7pxDAubSdQ-1" value="&lt;h1&gt;Host Machine&lt;/h1&gt;" style="rounded=0;fillColor=#f5f5f5;strokeColor=#666666;verticalAlign=bottom;textShadow=0;html=1;labelPosition=center;verticalLabelPosition=top;align=center;fontStyle=1;fontColor=#0066CC;" vertex="1" parent="1">
          <mxGeometry x="40" y="50" width="1030" height="430" as="geometry" />
        </mxCell>
        <mxCell id="WI-DW6TrRd7pxDAubSdQ-2" value="" style="rounded=0;whiteSpace=wrap;html=1;labelBackgroundColor=none;fillColor=#f5f5f5;fontColor=#994C00;strokeColor=#994C00;labelPosition=center;verticalLabelPosition=top;align=center;verticalAlign=bottom;" vertex="1" parent="1">
          <mxGeometry x="80" y="160" width="720" height="280" as="geometry" />
        </mxCell>
        <mxCell id="WI-DW6TrRd7pxDAubSdQ-19" value="" style="edgeStyle=orthogonalEdgeStyle;rounded=0;orthogonalLoop=1;jettySize=auto;html=1;" edge="1" parent="1" source="WI-DW6TrRd7pxDAubSdQ-3" target="WI-DW6TrRd7pxDAubSdQ-13">
          <mxGeometry relative="1" as="geometry" />
        </mxCell>
        <mxCell id="WI-DW6TrRd7pxDAubSdQ-3" value="" style="image;sketch=0;aspect=fixed;html=1;points=[];align=center;fontSize=12;image=img/lib/mscae/Docker.svg;" vertex="1" parent="1">
          <mxGeometry x="380" y="71.8" width="70.98" height="58.2" as="geometry" />
        </mxCell>
        <mxCell id="WI-DW6TrRd7pxDAubSdQ-4" value="Broker (Kafka)" style="rounded=0;whiteSpace=wrap;html=1;labelBackgroundColor=none;labelPosition=center;verticalLabelPosition=top;align=center;verticalAlign=bottom;fillColor=#994C00;fontColor=#994C00;" vertex="1" parent="1">
          <mxGeometry x="499.75" y="220" width="170.25" height="130" as="geometry" />
        </mxCell>
        <mxCell id="WI-DW6TrRd7pxDAubSdQ-7" value="Imagen:&lt;div&gt;confluentinc/cp-kafka:6.0.14&lt;/div&gt;" style="text;whiteSpace=wrap;html=1;fontColor=#994C00;align=center;" vertex="1" parent="1">
          <mxGeometry x="504.63" y="390" width="160.49" height="20" as="geometry" />
        </mxCell>
        <mxCell id="WI-DW6TrRd7pxDAubSdQ-8" value="" style="image;sketch=0;aspect=fixed;html=1;points=[];align=center;fontSize=12;image=img/lib/mscae/Docker.svg;" vertex="1" parent="1">
          <mxGeometry x="566.58" y="360" width="36.59" height="30" as="geometry" />
        </mxCell>
        <mxCell id="WI-DW6TrRd7pxDAubSdQ-9" value="LISTENER DOCKER EXTERNAL&amp;nbsp;" style="rounded=0;whiteSpace=wrap;fillColor=#B3B3B3;labelPosition=center;verticalLabelPosition=top;align=center;verticalAlign=bottom;fontColor=#B3B3B3;html=1;fontSize=12;" vertex="1" parent="1">
          <mxGeometry x="670" y="220" width="59.75" height="130" as="geometry" />
        </mxCell>
        <mxCell id="WI-DW6TrRd7pxDAubSdQ-10" value="LocalHost: 29092" style="text;whiteSpace=wrap;html=1;fontColor=#994C00;align=center;rotation=90;" vertex="1" parent="1">
          <mxGeometry x="670" y="265" width="140.49" height="25" as="geometry" />
        </mxCell>
        <mxCell id="WI-DW6TrRd7pxDAubSdQ-12" value="&amp;nbsp;create_topics: &#39;topic-be-dlake-ingesta-desa-compraaqui-pospagos&#39;" style="text;html=1;align=center;verticalAlign=middle;whiteSpace=wrap;rounded=0;" vertex="1" parent="1">
          <mxGeometry x="494.87" y="290" width="180" height="52.5" as="geometry" />
        </mxCell>
        <mxCell id="WI-DW6TrRd7pxDAubSdQ-13" value="LISTENER DOCKER INTERNAL" style="rounded=0;whiteSpace=wrap;fillColor=#B3B3B3;labelPosition=center;verticalLabelPosition=top;align=center;verticalAlign=bottom;fontColor=#B3B3B3;html=1;fontSize=12;" vertex="1" parent="1">
          <mxGeometry x="440.49" y="220" width="59.75" height="130" as="geometry" />
        </mxCell>
        <mxCell id="WI-DW6TrRd7pxDAubSdQ-14" value="LocalHost: 9092" style="text;whiteSpace=wrap;html=1;fontColor=#994C00;align=center;rotation=90;" vertex="1" parent="1">
          <mxGeometry x="359.26" y="272.5" width="140.49" height="25" as="geometry" />
        </mxCell>
        <mxCell id="WI-DW6TrRd7pxDAubSdQ-15" value="Zookeeper" style="rounded=0;whiteSpace=wrap;html=1;labelBackgroundColor=none;labelPosition=center;verticalLabelPosition=top;align=center;verticalAlign=bottom;fillColor=#994C00;fontColor=#994C00;" vertex="1" parent="1">
          <mxGeometry x="250" y="220" width="70" height="130" as="geometry" />
        </mxCell>
        <mxCell id="WI-DW6TrRd7pxDAubSdQ-16" value="" style="image;sketch=0;aspect=fixed;html=1;points=[];align=center;fontSize=12;image=img/lib/mscae/Docker.svg;" vertex="1" parent="1">
          <mxGeometry x="266.71" y="360" width="36.59" height="30" as="geometry" />
        </mxCell>
        <mxCell id="WI-DW6TrRd7pxDAubSdQ-17" value="Imagen:&lt;div&gt;confluentinc/cp-zookeeper:6.0.14&lt;/div&gt;" style="text;whiteSpace=wrap;html=1;fontColor=#994C00;align=center;" vertex="1" parent="1">
          <mxGeometry x="204.76" y="390" width="160.49" height="20" as="geometry" />
        </mxCell>
        <mxCell id="WI-DW6TrRd7pxDAubSdQ-47" value="" style="edgeStyle=orthogonalEdgeStyle;rounded=0;orthogonalLoop=1;jettySize=auto;html=1;" edge="1" parent="1" source="WI-DW6TrRd7pxDAubSdQ-20" target="WI-DW6TrRd7pxDAubSdQ-21">
          <mxGeometry relative="1" as="geometry" />
        </mxCell>
        <mxCell id="WI-DW6TrRd7pxDAubSdQ-20" value="Text" style="text;html=1;align=center;verticalAlign=middle;whiteSpace=wrap;rounded=0;" vertex="1" parent="1">
          <mxGeometry x="170" y="110" width="60" height="30" as="geometry" />
        </mxCell>
        <mxCell id="WI-DW6TrRd7pxDAubSdQ-21" value="docker-compose.yml" style="text;html=1;align=center;verticalAlign=middle;whiteSpace=wrap;rounded=0;fontColor=#663300;" vertex="1" parent="1">
          <mxGeometry x="349.01" y="130" width="160.98" height="30" as="geometry" />
        </mxCell>
        <mxCell id="WI-DW6TrRd7pxDAubSdQ-22" value="LocalHost: 22181" style="text;whiteSpace=wrap;html=1;fontColor=#994C00;align=center;rotation=90;" vertex="1" parent="1">
          <mxGeometry x="270.49" y="272.5" width="140.49" height="25" as="geometry" />
        </mxCell>
        <mxCell id="WI-DW6TrRd7pxDAubSdQ-23" value="kafka-ui" style="rounded=0;whiteSpace=wrap;html=1;labelBackgroundColor=none;labelPosition=center;verticalLabelPosition=top;align=center;verticalAlign=bottom;fillColor=#994C00;fontColor=#994C00;" vertex="1" parent="1">
          <mxGeometry x="120" y="220" width="70" height="130" as="geometry" />
        </mxCell>
        <mxCell id="WI-DW6TrRd7pxDAubSdQ-24" value="&lt;div&gt;Imagen: provectuslabs/kafka-ui:latest&lt;span style=&quot;color: rgba(0, 0, 0, 0); font-family: monospace; font-size: 0px; text-align: start; text-wrap: nowrap; background-color: initial;&quot;&gt;%3CmxGraphModel%3E%3Croot%3E%3CmxCell%20id%3D%220%22%2F%3E%3CmxCell%20id%3D%221%22%20parent%3D%220%22%2F%3E%3CmxCell%20id%3D%222%22%20value%3D%22Imagen%3A%26lt%3Bdiv%26gt%3Bconfluentinc%2Fcp-zookeeper%3A6.0.14%26lt%3B%2Fdiv%26gt%3B%22%20style%3D%22text%3BwhiteSpace%3Dwrap%3Bhtml%3D1%3BfontColor%3D%23994C00%3Balign%3Dcenter%3B%22%20vertex%3D%221%22%20parent%3D%221%22%3E%3CmxGeometry%20x%3D%22204.76%22%20y%3D%22390%22%20width%3D%22160.49%22%20height%3D%2220%22%20as%3D%22geometry%22%2F%3E%3C%2FmxCell%3E%3C%2Froot%3E%3C%2FmxGraphModel%3E&lt;/span&gt;&lt;/div&gt;" style="text;whiteSpace=wrap;html=1;fontColor=#994C00;align=center;" vertex="1" parent="1">
          <mxGeometry x="107.36999999999999" y="390" width="95.25" height="20" as="geometry" />
        </mxCell>
        <mxCell id="WI-DW6TrRd7pxDAubSdQ-25" value="" style="image;sketch=0;aspect=fixed;html=1;points=[];align=center;fontSize=12;image=img/lib/mscae/Docker.svg;" vertex="1" parent="1">
          <mxGeometry x="136.7" y="360" width="36.59" height="30" as="geometry" />
        </mxCell>
        <mxCell id="WI-DW6TrRd7pxDAubSdQ-30" value="" style="sketch=0;pointerEvents=1;shadow=0;dashed=0;html=1;strokeColor=none;fillColor=#434445;aspect=fixed;labelPosition=center;verticalLabelPosition=bottom;verticalAlign=top;align=center;outlineConnect=0;shape=mxgraph.vvd.web_browser;" vertex="1" parent="1">
          <mxGeometry x="121.99" y="77.47" width="65.99" height="46.85" as="geometry" />
        </mxCell>
        <mxCell id="WI-DW6TrRd7pxDAubSdQ-31" value="LocalHost: 8085" style="text;whiteSpace=wrap;html=1;fontColor=#994C00;align=center;rotation=90;" vertex="1" parent="1">
          <mxGeometry x="136.70000000000002" y="265" width="140.49" height="25" as="geometry" />
        </mxCell>
        <mxCell id="WI-DW6TrRd7pxDAubSdQ-32" value="&lt;h2&gt;&lt;br&gt;&lt;/h2&gt;" style="rounded=0;whiteSpace=wrap;html=1;fillColor=#FFFFFF;strokeColor=#006633;labelPosition=center;verticalLabelPosition=top;align=center;verticalAlign=bottom;fontColor=#006633;" vertex="1" parent="1">
          <mxGeometry x="870" y="160" width="180" height="280" as="geometry" />
        </mxCell>
        <mxCell id="WI-DW6TrRd7pxDAubSdQ-33" value="ts-nestjs-kafka-client:3000" style="text;html=1;align=center;verticalAlign=middle;whiteSpace=wrap;rounded=0;fontColor=#006633;" vertex="1" parent="1">
          <mxGeometry x="870" y="130" width="160.98" height="30" as="geometry" />
        </mxCell>
        <mxCell id="WI-DW6TrRd7pxDAubSdQ-39" value="" style="html=1;shadow=0;dashed=0;align=center;verticalAlign=middle;shape=mxgraph.arrows2.arrow;dy=0.67;dx=20;notch=0;rotation=-180;fillColor=#006633;" vertex="1" parent="1">
          <mxGeometry x="760" y="286.25" width="180" height="27.5" as="geometry" />
        </mxCell>
        <mxCell id="WI-DW6TrRd7pxDAubSdQ-40" value="" style="html=1;shadow=0;dashed=0;align=center;verticalAlign=middle;shape=mxgraph.arrows2.arrow;dy=0.67;dx=20;notch=0;rotation=-90;fillColor=#663300;" vertex="1" parent="1">
          <mxGeometry x="132.5" y="160" width="45" height="27.5" as="geometry" />
        </mxCell>
        <mxCell id="WI-DW6TrRd7pxDAubSdQ-43" value="" style="html=1;shadow=0;dashed=0;align=center;verticalAlign=middle;shape=mxgraph.arrows2.twoWayArrow;dy=0.6;dx=35;fillColor=#663300;" vertex="1" parent="1">
          <mxGeometry x="349.01" y="272.5" width="80" height="20" as="geometry" />
        </mxCell>
        <mxCell id="WI-DW6TrRd7pxDAubSdQ-44" value="Producer" style="text;html=1;align=center;verticalAlign=middle;whiteSpace=wrap;rounded=0;fontColor=#006633;fontSize=16;fontStyle=1" vertex="1" parent="1">
          <mxGeometry x="900" y="190" width="120" height="30" as="geometry" />
        </mxCell>
        <mxCell id="WI-DW6TrRd7pxDAubSdQ-46" value="LocalHost: 8085" style="text;whiteSpace=wrap;html=1;fontColor=#994C00;align=center;rotation=0;" vertex="1" parent="1">
          <mxGeometry x="110.00000000000001" y="130" width="90" height="25" as="geometry" />
        </mxCell>
        <mxCell id="WI-DW6TrRd7pxDAubSdQ-53" value="" style="edgeStyle=orthogonalEdgeStyle;rounded=0;orthogonalLoop=1;jettySize=auto;html=1;" edge="1" parent="1" source="WI-DW6TrRd7pxDAubSdQ-48" target="WI-DW6TrRd7pxDAubSdQ-51">
          <mxGeometry relative="1" as="geometry" />
        </mxCell>
        <mxCell id="WI-DW6TrRd7pxDAubSdQ-48" value="" style="outlineConnect=0;dashed=0;verticalLabelPosition=bottom;verticalAlign=top;align=center;html=1;shape=mxgraph.aws3.android;fillColor=#8CC64F;gradientColor=none;fontColor=#006633;" vertex="1" parent="1">
          <mxGeometry x="930.15" y="67.85000000000001" width="59.7" height="66.11" as="geometry" />
        </mxCell>
        <mxCell id="WI-DW6TrRd7pxDAubSdQ-49" value="trx" style="text;html=1;align=center;verticalAlign=middle;whiteSpace=wrap;rounded=0;fontColor=#006633;fontSize=12;fontStyle=1" vertex="1" parent="1">
          <mxGeometry x="925" y="237.5" width="70" height="27.5" as="geometry" />
        </mxCell>
        <mxCell id="WI-DW6TrRd7pxDAubSdQ-50" value="log" style="text;html=1;align=center;verticalAlign=middle;whiteSpace=wrap;rounded=0;fontColor=#006633;fontSize=12;fontStyle=1" vertex="1" parent="1">
          <mxGeometry x="926.75" y="286.25" width="70" height="27.5" as="geometry" />
        </mxCell>
        <mxCell id="WI-DW6TrRd7pxDAubSdQ-51" value="" style="html=1;shadow=0;dashed=0;align=center;verticalAlign=middle;shape=mxgraph.arrows2.arrow;dy=0.67;dx=20;notch=0;rotation=-180;fillColor=#006633;" vertex="1" parent="1">
          <mxGeometry x="760" y="237.5" width="180" height="27.5" as="geometry" />
        </mxCell>
      </root>
    </mxGraphModel>
  </diagram>
</mxfile>
